<svg width="120" height="120" viewBox="0 0 120 120" fill="none" xmlns="http://www.w3.org/2000/svg">
<ellipse cx="60.0111" cy="60.0111" rx="46" ry="46" stroke="white" stroke-width="20"/>
<mask id="path-2-outside-1_0_1" maskUnits="userSpaceOnUse" x="39" y="25" width="47" height="76" fill="black">
<rect fill="white" x="39" y="25" width="47" height="76"/>
<path d="M56.7472 77.5909V77.2074C56.7898 73.1378 57.2159 69.8991 58.0256 67.4915C58.8352 65.0838 59.9858 63.1342 61.4773 61.6428C62.9688 60.1513 64.7585 58.777 66.8466 57.5199C68.1037 56.7528 69.233 55.8473 70.2344 54.8033C71.2358 53.7379 72.0241 52.5128 72.5994 51.1278C73.196 49.7429 73.4943 48.2088 73.4943 46.5256C73.4943 44.4375 73.0043 42.6264 72.0241 41.0923C71.044 39.5582 69.7337 38.3757 68.093 37.5447C66.4524 36.7138 64.6307 36.2983 62.6278 36.2983C60.8807 36.2983 59.1974 36.6605 57.5781 37.3849C55.9588 38.1094 54.6058 39.2493 53.5192 40.8047C52.4325 42.3601 51.804 44.3949 51.6335 46.9091H43.5795C43.75 43.2869 44.6875 40.1868 46.392 37.6087C48.1179 35.0305 50.3871 33.0597 53.1996 31.696C56.0334 30.3324 59.1761 29.6506 62.6278 29.6506C66.3778 29.6506 69.6378 30.3963 72.4077 31.8878C75.1989 33.3793 77.3509 35.4247 78.8636 38.0241C80.3977 40.6236 81.1648 43.5852 81.1648 46.9091C81.1648 49.2528 80.8026 51.3729 80.0781 53.2692C79.375 55.1655 78.3523 56.8594 77.0099 58.3509C75.6889 59.8423 74.0909 61.1634 72.2159 62.3139C70.3409 63.4858 68.8388 64.7216 67.7095 66.0213C66.5803 67.2997 65.7599 68.8232 65.2486 70.5916C64.7372 72.3601 64.4602 74.5653 64.4176 77.2074V77.5909H56.7472ZM60.8381 96.5114C59.2614 96.5114 57.9084 95.9467 56.7791 94.8175C55.6499 93.6882 55.0852 92.3352 55.0852 90.7585C55.0852 89.1818 55.6499 87.8288 56.7791 86.6996C57.9084 85.5703 59.2614 85.0057 60.8381 85.0057C62.4148 85.0057 63.7678 85.5703 64.897 86.6996C66.0263 87.8288 66.5909 89.1818 66.5909 90.7585C66.5909 91.8026 66.3246 92.7614 65.7919 93.6349C65.2805 94.5085 64.5881 95.2116 63.7145 95.7443C62.8622 96.2557 61.9034 96.5114 60.8381 96.5114Z"/>
</mask>
<path d="M56.7472 77.5909V77.2074C56.7898 73.1378 57.2159 69.8991 58.0256 67.4915C58.8352 65.0838 59.9858 63.1342 61.4773 61.6428C62.9688 60.1513 64.7585 58.777 66.8466 57.5199C68.1037 56.7528 69.233 55.8473 70.2344 54.8033C71.2358 53.7379 72.0241 52.5128 72.5994 51.1278C73.196 49.7429 73.4943 48.2088 73.4943 46.5256C73.4943 44.4375 73.0043 42.6264 72.0241 41.0923C71.044 39.5582 69.7337 38.3757 68.093 37.5447C66.4524 36.7138 64.6307 36.2983 62.6278 36.2983C60.8807 36.2983 59.1974 36.6605 57.5781 37.3849C55.9588 38.1094 54.6058 39.2493 53.5192 40.8047C52.4325 42.3601 51.804 44.3949 51.6335 46.9091H43.5795C43.75 43.2869 44.6875 40.1868 46.392 37.6087C48.1179 35.0305 50.3871 33.0597 53.1996 31.696C56.0334 30.3324 59.1761 29.6506 62.6278 29.6506C66.3778 29.6506 69.6378 30.3963 72.4077 31.8878C75.1989 33.3793 77.3509 35.4247 78.8636 38.0241C80.3977 40.6236 81.1648 43.5852 81.1648 46.9091C81.1648 49.2528 80.8026 51.3729 80.0781 53.2692C79.375 55.1655 78.3523 56.8594 77.0099 58.3509C75.6889 59.8423 74.0909 61.1634 72.2159 62.3139C70.3409 63.4858 68.8388 64.7216 67.7095 66.0213C66.5803 67.2997 65.7599 68.8232 65.2486 70.5916C64.7372 72.3601 64.4602 74.5653 64.4176 77.2074V77.5909H56.7472ZM60.8381 96.5114C59.2614 96.5114 57.9084 95.9467 56.7791 94.8175C55.6499 93.6882 55.0852 92.3352 55.0852 90.7585C55.0852 89.1818 55.6499 87.8288 56.7791 86.6996C57.9084 85.5703 59.2614 85.0057 60.8381 85.0057C62.4148 85.0057 63.7678 85.5703 64.897 86.6996C66.0263 87.8288 66.5909 89.1818 66.5909 90.7585C66.5909 91.8026 66.3246 92.7614 65.7919 93.6349C65.2805 94.5085 64.5881 95.2116 63.7145 95.7443C62.8622 96.2557 61.9034 96.5114 60.8381 96.5114Z" fill="black"/>
<path d="M56.7472 77.5909H52.7472V81.5909H56.7472V77.5909ZM56.7472 77.2074L52.7474 77.1655L52.7472 77.1864V77.2074H56.7472ZM58.0256 67.4915L54.2342 66.2165L54.2342 66.2165L58.0256 67.4915ZM61.4773 61.6428L64.3057 64.4712L64.3057 64.4712L61.4773 61.6428ZM66.8466 57.5199L68.9097 60.9468L68.9199 60.9406L68.9301 60.9344L66.8466 57.5199ZM70.2344 54.8033L73.1211 57.5722L73.1351 57.5576L73.1489 57.5429L70.2344 54.8033ZM72.5994 51.1278L68.9258 49.5453L68.9155 49.5693L68.9054 49.5934L72.5994 51.1278ZM57.5781 37.3849L55.9447 33.7337L55.9447 33.7337L57.5781 37.3849ZM53.5192 40.8047L56.7982 43.0955L56.7982 43.0955L53.5192 40.8047ZM51.6335 46.9091V50.9091H55.3715L55.6244 47.1797L51.6335 46.9091ZM43.5795 46.9091L39.584 46.7211L39.3869 50.9091H43.5795V46.9091ZM46.392 37.6087L43.0681 35.3835L43.0617 35.393L43.0554 35.4026L46.392 37.6087ZM53.1996 31.696L51.4651 28.0916L51.4545 28.0968L53.1996 31.696ZM72.4077 31.8878L70.5113 35.4097L70.5225 35.4157L72.4077 31.8878ZM78.8636 38.0241L75.4065 40.0361L75.4126 40.0466L75.4188 40.0572L78.8636 38.0241ZM80.0781 53.2692L76.3415 51.8417L76.3345 51.8601L76.3276 51.8785L80.0781 53.2692ZM77.0099 58.3509L74.0368 55.675L74.0261 55.6868L74.0156 55.6987L77.0099 58.3509ZM72.2159 62.3139L70.1238 58.9046L70.1098 58.9132L70.0959 58.9219L72.2159 62.3139ZM67.7095 66.0213L70.7074 68.6694L70.7183 68.6572L70.729 68.6448L67.7095 66.0213ZM64.4176 77.2074L60.4181 77.1429L60.4176 77.1751V77.2074H64.4176ZM64.4176 77.5909V81.5909H68.4176V77.5909H64.4176ZM56.7791 94.8175L59.6075 91.989L59.6075 91.989L56.7791 94.8175ZM56.7791 86.6996L59.6075 89.528L59.6075 89.528L56.7791 86.6996ZM65.7919 93.6349L62.3767 91.5525L62.358 91.5832L62.3398 91.6142L65.7919 93.6349ZM63.7145 95.7443L65.7725 99.1743L65.7847 99.1669L65.7969 99.1595L63.7145 95.7443ZM56.7472 77.5909H60.7472V77.2074H56.7472H52.7472V77.5909H56.7472ZM56.7472 77.2074L60.7469 77.2493C60.7875 73.3786 61.1967 70.6109 61.8169 68.7664L58.0256 67.4915L54.2342 66.2165C53.2351 69.1874 52.7921 72.897 52.7474 77.1655L56.7472 77.2074ZM58.0256 67.4915L61.8169 68.7664C62.4695 66.8258 63.3311 65.4458 64.3057 64.4712L61.4773 61.6428L58.6488 58.8143C56.6405 60.8227 55.2009 63.3418 54.2342 66.2165L58.0256 67.4915ZM61.4773 61.6428L64.3057 64.4712C65.535 63.2419 67.058 62.0616 68.9097 60.9468L66.8466 57.5199L64.7835 54.093C62.459 55.4924 60.4025 57.0607 58.6488 58.8143L61.4773 61.6428ZM66.8466 57.5199L68.9301 60.9344C70.4763 59.991 71.8766 58.8696 73.1211 57.5722L70.2344 54.8033L67.3476 52.0344C66.5893 52.825 65.7311 53.5147 64.7631 54.1053L66.8466 57.5199ZM70.2344 54.8033L73.1489 57.5429C74.4892 56.117 75.5379 54.481 76.2934 52.6623L72.5994 51.1278L68.9054 49.5934C68.5104 50.5446 67.9824 51.3588 67.3199 52.0636L70.2344 54.8033ZM72.5994 51.1278L76.2731 52.7103C77.1087 50.7705 77.4943 48.6896 77.4943 46.5256H73.4943H69.4943C69.4943 47.728 69.2833 48.7153 68.9258 49.5453L72.5994 51.1278ZM73.4943 46.5256H77.4943C77.4943 43.7893 76.8437 41.2064 75.3949 38.9388L72.0241 41.0923L68.6534 43.2459C69.1648 44.0464 69.4943 45.0857 69.4943 46.5256H73.4943ZM72.0241 41.0923L75.3949 38.9388C74.0255 36.7953 72.1725 35.1271 69.9004 33.9763L68.093 37.5447L66.2857 41.1131C67.2949 41.6243 68.0626 42.3212 68.6534 43.2459L72.0241 41.0923ZM68.093 37.5447L69.9004 33.9763C67.6508 32.837 65.2017 32.2983 62.6278 32.2983V36.2983V40.2983C64.0597 40.2983 65.254 40.5906 66.2857 41.1131L68.093 37.5447ZM62.6278 36.2983V32.2983C60.3089 32.2983 58.0697 32.783 55.9447 33.7337L57.5781 37.3849L59.2116 41.0362C60.3252 40.538 61.4525 40.2983 62.6278 40.2983V36.2983ZM57.5781 37.3849L55.9447 33.7337C53.6175 34.7748 51.7119 36.4072 50.2401 38.5139L53.5192 40.8047L56.7982 43.0955C57.4997 42.0914 58.3002 41.444 59.2116 41.0362L57.5781 37.3849ZM53.5192 40.8047L50.2401 38.5139C48.6216 40.8305 47.8466 43.6301 47.6427 46.6385L51.6335 46.9091L55.6244 47.1797C55.7613 45.1597 56.2434 43.8896 56.7982 43.0955L53.5192 40.8047ZM51.6335 46.9091V42.9091H43.5795V46.9091V50.9091H51.6335V46.9091ZM43.5795 46.9091L47.5751 47.0971C47.7176 44.0687 48.4858 41.6946 49.7287 39.8147L46.392 37.6087L43.0554 35.4026C40.8892 38.679 39.7824 42.5052 39.584 46.7211L43.5795 46.9091ZM46.392 37.6087L49.716 39.8338C51.0438 37.8504 52.7661 36.3516 54.9447 35.2953L53.1996 31.696L51.4545 28.0968C48.0081 29.7677 45.192 32.2107 43.0681 35.3835L46.392 37.6087ZM53.1996 31.696L54.934 35.3004C57.1756 34.2218 59.7173 33.6506 62.6278 33.6506V29.6506V25.6506C58.635 25.6506 54.8911 26.443 51.4651 28.0916L53.1996 31.696ZM62.6278 29.6506V33.6506C65.8427 33.6506 68.4265 34.2871 70.5113 35.4097L72.4077 31.8878L74.3041 28.3659C70.8491 26.5055 66.913 25.6506 62.6278 25.6506V29.6506ZM72.4077 31.8878L70.5225 35.4157C72.695 36.5766 74.2868 38.1122 75.4065 40.0361L78.8636 38.0241L82.3208 36.0122C80.4149 32.7372 77.7027 30.182 74.2928 28.3599L72.4077 31.8878ZM78.8636 38.0241L75.4188 40.0572C76.5534 41.9796 77.1648 44.2259 77.1648 46.9091H81.1648H85.1648C85.1648 42.9446 84.2421 39.2675 82.3085 35.9911L78.8636 38.0241ZM81.1648 46.9091H77.1648C77.1648 48.8393 76.8671 50.4658 76.3415 51.8417L80.0781 53.2692L83.8147 54.6966C84.738 52.2799 85.1648 49.6664 85.1648 46.9091H81.1648ZM80.0781 53.2692L76.3276 51.8785C75.7987 53.305 75.0384 54.562 74.0368 55.675L77.0099 58.3509L79.9831 61.0267C81.6661 59.1567 82.9513 57.0259 83.8286 54.6598L80.0781 53.2692ZM77.0099 58.3509L74.0156 55.6987C72.982 56.8657 71.6971 57.9392 70.1238 58.9046L72.2159 62.3139L74.308 65.7232C76.4848 64.3875 78.3958 62.819 80.0043 61.003L77.0099 58.3509ZM72.2159 62.3139L70.0959 58.9219C67.975 60.2475 66.1411 61.7278 64.69 63.3978L67.7095 66.0213L70.729 68.6448C71.5365 67.7154 72.7068 66.7241 74.3359 65.7059L72.2159 62.3139ZM67.7095 66.0213L64.7116 63.3732C63.1602 65.1295 62.0685 67.1893 61.406 69.4805L65.2486 70.5916L69.0912 71.7027C69.4514 70.457 70.0003 69.4699 70.7074 68.6694L67.7095 66.0213ZM65.2486 70.5916L61.406 69.4805C60.7637 71.7016 60.4642 74.2863 60.4181 77.1429L64.4176 77.2074L68.4171 77.2719C68.4562 74.8443 68.7107 73.0185 69.0912 71.7027L65.2486 70.5916ZM64.4176 77.2074H60.4176V77.5909H64.4176H68.4176V77.2074H64.4176ZM64.4176 77.5909V73.5909H56.7472V77.5909V81.5909H64.4176V77.5909ZM60.8381 96.5114V92.5114C60.3375 92.5114 59.9975 92.379 59.6075 91.989L56.7791 94.8175L53.9507 97.6459C55.8192 99.5144 58.1852 100.511 60.8381 100.511V96.5114ZM56.7791 94.8175L59.6075 91.989C59.2176 91.5991 59.0852 91.2591 59.0852 90.7585H55.0852H51.0852C51.0852 93.4113 52.0821 95.7773 53.9507 97.6459L56.7791 94.8175ZM55.0852 90.7585H59.0852C59.0852 90.2579 59.2176 89.918 59.6075 89.528L56.7791 86.6996L53.9507 83.8711C52.0821 85.7397 51.0852 88.1057 51.0852 90.7585H55.0852ZM56.7791 86.6996L59.6075 89.528C59.9975 89.138 60.3375 89.0057 60.8381 89.0057V85.0057V81.0057C58.1852 81.0057 55.8192 82.0026 53.9507 83.8711L56.7791 86.6996ZM60.8381 85.0057V89.0057C61.3387 89.0057 61.6786 89.138 62.0686 89.528L64.897 86.6996L67.7254 83.8711C65.8569 82.0026 63.4909 81.0057 60.8381 81.0057V85.0057ZM64.897 86.6996L62.0686 89.528C62.4586 89.918 62.5909 90.2579 62.5909 90.7585H66.5909H70.5909C70.5909 88.1057 69.594 85.7397 67.7254 83.8711L64.897 86.6996ZM66.5909 90.7585H62.5909C62.5909 91.0837 62.5188 91.3195 62.3767 91.5525L65.7919 93.6349L69.2071 95.7174C70.1304 94.2032 70.5909 92.5215 70.5909 90.7585H66.5909ZM65.7919 93.6349L62.3398 91.6142C62.1664 91.9105 61.9472 92.137 61.6321 92.3291L63.7145 95.7443L65.7969 99.1595C67.229 98.2863 68.3946 97.1066 69.244 95.6557L65.7919 93.6349ZM63.7145 95.7443L61.6565 92.3143C61.4707 92.4258 61.2325 92.5114 60.8381 92.5114V96.5114V100.511C62.5743 100.511 64.2537 100.086 65.7725 99.1743L63.7145 95.7443Z" fill="white" mask="url(#path-2-outside-1_0_1)"/>
<path d="M85 47.5L84 40.5H99L102.5 47.5H85Z" fill="black" stroke="white" stroke-width="2"/>
<path d="M69.5 47.5L69 40.5H23.5L19 47.5H69.5Z" fill="black" stroke="white" stroke-width="2"/>
<path d="M59.9245 104.547C84.5689 104.547 104.547 84.5689 104.547 59.9245C104.547 35.2801 84.5689 15.3019 59.9245 15.3019C35.2801 15.3019 15.3019 35.2801 15.3019 59.9245C15.3019 84.5689 35.2801 104.547 59.9245 104.547Z" stroke="black" stroke-width="9"/>
<path d="M107.66 63.0377L112.849 59.9245L107.66 56.8113V63.0377Z" fill="black" stroke="black" stroke-width="3" stroke-linejoin="round"/>
<path d="M106.136 72.2907L111.832 70.2496L107.35 66.1839L106.136 72.2907Z" fill="black" stroke="black" stroke-width="3" stroke-linejoin="round"/>
<path d="M102.835 81.0685L108.82 80.1779L105.218 75.316L102.835 81.0685Z" fill="black" stroke="black" stroke-width="3" stroke-linejoin="round"/>
<path d="M97.8858 89.0337L103.93 89.3278L101.345 83.8566L97.8858 89.0337Z" fill="black" stroke="black" stroke-width="3" stroke-linejoin="round"/>
<path d="M91.4775 95.8802L97.3478 97.3478L95.8802 91.4775L91.4775 95.8802Z" fill="black" stroke="black" stroke-width="3" stroke-linejoin="round"/>
<path d="M83.8566 101.345L89.3278 103.93L89.0337 97.8858L83.8566 101.345Z" fill="black" stroke="black" stroke-width="3" stroke-linejoin="round"/>
<path d="M75.316 105.218L80.1779 108.82L81.0685 102.835L75.316 105.218Z" fill="black" stroke="black" stroke-width="3" stroke-linejoin="round"/>
<path d="M66.1839 107.351L70.2496 111.832L72.2907 106.136L66.1839 107.351Z" fill="black" stroke="black" stroke-width="3" stroke-linejoin="round"/>
<path d="M56.8113 107.66L59.9245 112.849L63.0377 107.66H56.8113Z" fill="black" stroke="black" stroke-width="3" stroke-linejoin="round"/>
<path d="M47.5583 106.136L49.5995 111.832L53.6651 107.351L47.5583 106.136Z" fill="black" stroke="black" stroke-width="3" stroke-linejoin="round"/>
<path d="M38.7806 102.835L39.6712 108.82L44.533 105.218L38.7806 102.835Z" fill="black" stroke="black" stroke-width="3" stroke-linejoin="round"/>
<path d="M30.8154 97.8858L30.5212 103.93L35.9924 101.345L30.8154 97.8858Z" fill="black" stroke="black" stroke-width="3" stroke-linejoin="round"/>
<path d="M23.9688 91.4775L22.5012 97.3478L28.3716 95.8802L23.9688 91.4775Z" fill="black" stroke="black" stroke-width="3" stroke-linejoin="round"/>
<path d="M18.504 83.8566L15.9194 89.3278L21.9632 89.0337L18.504 83.8566Z" fill="black" stroke="black" stroke-width="3" stroke-linejoin="round"/>
<path d="M14.631 75.316L11.0286 80.1779L17.0137 81.0685L14.631 75.316Z" fill="black" stroke="black" stroke-width="3" stroke-linejoin="round"/>
<path d="M12.4986 66.1839L8.01694 70.2496L13.7133 72.2907L12.4986 66.1839Z" fill="black" stroke="black" stroke-width="3" stroke-linejoin="round"/>
<path d="M12.1887 56.8113L7 59.9245L12.1887 63.0377V56.8113Z" fill="black" stroke="black" stroke-width="3" stroke-linejoin="round"/>
<path d="M13.7133 47.5583L8.01693 49.5995L12.4986 53.6651L13.7133 47.5583Z" fill="black" stroke="black" stroke-width="3" stroke-linejoin="round"/>
<path d="M17.0137 38.7806L11.0286 39.6712L14.631 44.533L17.0137 38.7806Z" fill="black" stroke="black" stroke-width="3" stroke-linejoin="round"/>
<path d="M21.9632 30.8154L15.9194 30.5212L18.504 35.9925L21.9632 30.8154Z" fill="black" stroke="black" stroke-width="3" stroke-linejoin="round"/>
<path d="M28.3716 23.9688L22.5012 22.5012L23.9688 28.3716L28.3716 23.9688Z" fill="black" stroke="black" stroke-width="3" stroke-linejoin="round"/>
<path d="M35.9924 18.504L30.5212 15.9194L30.8154 21.9632L35.9924 18.504Z" fill="black" stroke="black" stroke-width="3" stroke-linejoin="round"/>
<path d="M44.533 14.631L39.6712 11.0286L38.7806 17.0137L44.533 14.631Z" fill="black" stroke="black" stroke-width="3" stroke-linejoin="round"/>
<path d="M53.6651 12.4986L49.5995 8.01693L47.5583 13.7133L53.6651 12.4986Z" fill="black" stroke="black" stroke-width="3" stroke-linejoin="round"/>
<path d="M63.0377 12.1887L59.9245 7L56.8113 12.1887L63.0377 12.1887Z" fill="black" stroke="black" stroke-width="3" stroke-linejoin="round"/>
<path d="M72.2907 13.7133L70.2496 8.01693L66.1839 12.4986L72.2907 13.7133Z" fill="black" stroke="black" stroke-width="3" stroke-linejoin="round"/>
<path d="M81.0685 17.0137L80.1779 11.0286L75.316 14.631L81.0685 17.0137Z" fill="black" stroke="black" stroke-width="3" stroke-linejoin="round"/>
<path d="M89.0337 21.9632L89.3278 15.9194L83.8566 18.504L89.0337 21.9632Z" fill="black" stroke="black" stroke-width="3" stroke-linejoin="round"/>
<path d="M95.8802 28.3716L97.3478 22.5012L91.4775 23.9688L95.8802 28.3716Z" fill="black" stroke="black" stroke-width="3" stroke-linejoin="round"/>
<path d="M101.345 35.9925L103.93 30.5212L97.8858 30.8154L101.345 35.9925Z" fill="black" stroke="black" stroke-width="3" stroke-linejoin="round"/>
<path d="M105.218 44.533L108.82 39.6712L102.835 38.7806L105.218 44.533Z" fill="black" stroke="black" stroke-width="3" stroke-linejoin="round"/>
<path d="M107.351 53.6651L111.832 49.5995L106.136 47.5583L107.351 53.6651Z" fill="black" stroke="black" stroke-width="3" stroke-linejoin="round"/>
<path d="M52.6604 16.3396L59.9245 23.6038L67.1887 16.3396H52.6604Z" fill="black" stroke="black" stroke-width="6" stroke-linejoin="round"/>
<path d="M99.1315 39.5474L94.4676 48.7008L103.621 53.3647L99.1315 39.5474Z" fill="black" stroke="black" stroke-width="6" stroke-linejoin="round"/>
<path d="M91.4199 90.9157L81.2733 89.3086L79.6663 99.4552L91.4199 90.9157Z" fill="black" stroke="black" stroke-width="6" stroke-linejoin="round"/>
<path d="M40.1828 99.4552L38.5757 89.3086L28.4291 90.9157L40.1828 99.4552Z" fill="black" stroke="black" stroke-width="6" stroke-linejoin="round"/>
<path d="M16.2281 53.3647L25.3814 48.7008L20.7176 39.5474L16.2281 53.3647Z" fill="black" stroke="black" stroke-width="6" stroke-linejoin="round"/>
<path d="M70 42L69.5 48L69 47L68.5 45.5L68.25 44.7412L68 44L67.5 43L66.5 42L65.5 41.5L64 41L70 42Z" fill="white" stroke="white"/>
</svg>
